<?xml version="1.0" encoding="UTF-8" standalone="no"?>
<!-- Created with Inkscape (http://www.inkscape.org/) -->

<svg
   xmlns:dc="http://purl.org/dc/elements/1.1/"
   xmlns:cc="http://creativecommons.org/ns#"
   xmlns:rdf="http://www.w3.org/1999/02/22-rdf-syntax-ns#"
   xmlns:svg="http://www.w3.org/2000/svg"
   xmlns="http://www.w3.org/2000/svg"
   xmlns:sodipodi="http://sodipodi.sourceforge.net/DTD/sodipodi-0.dtd"
   xmlns:inkscape="http://www.inkscape.org/namespaces/inkscape"
   version="1.1"
   id="svg815"
   width="876.79999"
   height="456"
   viewBox="0 0 876.79999 456"
   sodipodi:docname="logo5.svg"
   inkscape:version="0.92.3 (2405546, 2018-03-11)">
  <metadata
     id="metadata821">
    <rdf:RDF>
      <cc:Work
         rdf:about="">
        <dc:format>image/svg+xml</dc:format>
        <dc:type
           rdf:resource="http://purl.org/dc/dcmitype/StillImage" />
        <dc:title></dc:title>
      </cc:Work>
    </rdf:RDF>
  </metadata>
  <defs
     id="defs819" />
  <sodipodi:namedview
     pagecolor="#ffffff"
     bordercolor="#666666"
     borderopacity="1"
     objecttolerance="10"
     gridtolerance="10"
     guidetolerance="10"
     inkscape:pageopacity="0"
     inkscape:pageshadow="2"
     inkscape:window-width="1920"
     inkscape:window-height="1001"
     id="namedview817"
     showgrid="false"
     inkscape:zoom="1.6403508"
     inkscape:cx="355.08771"
     inkscape:cy="233.81686"
     inkscape:window-x="-9"
     inkscape:window-y="-9"
     inkscape:window-maximized="1"
     inkscape:current-layer="svg815" />
  <ellipse
     style="opacity:0.97000002;fill:#24221c;fill-rule:evenodd;stroke-width:0.97208756"
     id="path833"
     cx="121.41483"
     cy="215.41621"
     rx="95.836121"
     ry="100.32418" />
  <path
     style="fill:#ffffff;stroke-width:0.7725603"
     d="m 145.13745,303.22705 c 1.74346,-2.76192 4.56944,-7.944 6.27999,-11.51576 3.45077,-7.20545 3.44279,-7.04706 1.27957,-25.41079 -0.7772,-6.59772 -1.16847,-7.71119 -4.80207,-13.66569 -2.17576,-3.5655 -5.68888,-8.85061 -7.80692,-11.74476 l -3.85098,-5.26203 -0.47257,4.81639 c -1.34269,13.68478 -14.45336,20.38006 -23.37626,11.93764 -3.11574,-2.94798 -4.56507,-5.99327 -5.51523,-11.58857 l -0.82836,-4.8778 -7.27901,10.96467 c -8.144259,12.26803 -8.574536,13.63421 -9.721193,30.86633 l -0.540712,8.12601 3.193912,6.35238 c 1.756656,3.49381 4.419112,8.26765 5.916576,10.60857 1.497463,2.34091 2.438057,4.2562 2.090207,4.2562 -0.865292,0 -6.245322,-8.34101 -10.215315,-15.8375 l -3.273051,-6.18046 0.500646,-6.79955 c 0.726098,-9.86124 3.111223,-22.18589 5.016154,-25.91983 1.688294,-3.30935 19.527236,-27.45365 20.920016,-28.31444 0.42351,-0.26175 0.77004,-0.82318 0.77004,-1.24762 0,-0.42446 -2.17283,0.48002 -4.8285,2.0099 -7.19835,4.14685 -20.667847,10.87319 -23.823478,11.89685 -2.439604,0.79139 -3.631615,0.6178 -9.961124,-1.45057 -3.954434,-1.29226 -9.401747,-3.40517 -12.105128,-4.69539 -4.297615,-2.05106 -5.384041,-3.04435 -8.646403,-7.90523 -5.162467,-7.69201 -8.115058,-12.88932 -7.609586,-13.39481 0.234444,-0.23442 1.121423,0.93646 1.971112,2.60194 0.849668,1.66551 3.522856,5.67638 5.9404,8.91309 l 4.395531,5.88491 9.544357,3.92426 c 5.249386,2.15835 10.602132,4.13583 11.894991,4.39441 1.923003,0.38459 4.773005,-0.73216 15.6647,-6.13804 13.771998,-6.83545 17.045428,-9.04596 16.638858,-11.23605 -0.1309,-0.70494 -2.49692,-2.76747 -5.25791,-4.58338 -14.546474,-9.56744 -19.47648,-13.63947 -23.127335,-19.10256 -4.932651,-7.38116 -7.623404,-12.15116 -9.046929,-16.03794 -1.547578,-4.22546 -4.153065,-17.27299 -4.048228,-20.27239 0.04452,-1.27473 0.543708,0.21487 1.109235,3.31007 1.511083,8.27089 3.233779,13.69632 6.293454,19.82059 5.549814,11.10857 7.751668,14.03425 14.750151,19.59886 9.346802,7.43184 18.493062,13.50432 19.449552,12.91318 1.55004,-0.95798 0.74564,-2.89595 -5.72352,-13.78932 -10.44335,-17.58545 -11.292114,-19.76379 -12.182839,-31.26727 -1.207857,-15.5992 0.875938,-25.72028 8.319929,-40.41029 2.99611,-5.91257 3.59391,-5.11789 0.77178,1.02597 -5.277131,11.48841 -6.590265,17.29327 -7.126833,31.50463 l -0.489274,12.95898 4.788427,9.90561 c 5.92266,12.2519 13.9999,25.92828 15.09977,25.56685 0.45174,-0.14854 0.93245,-1.02492 1.06822,-1.94769 0.26001,-1.76694 1.26635,-2.20685 2.07082,-0.90516 0.66439,1.07499 4.05444,0.97018 4.42343,-0.13685 0.45335,-1.36006 2.14334,0.002 2.14334,1.7275 0,3.10787 2.06559,1.2497 6.10437,-5.49137 7.08082,-11.81848 13.86588,-26.18831 14.40578,-30.50937 0.27052,-2.16512 0.13465,-8.95393 -0.30215,-15.08628 -0.82399,-11.57108 -2.37437,-17.64884 -7.33435,-28.75202 -1.09797,-2.45785 -1.61927,-4.23579 -1.15847,-3.95099 0.95845,0.59235 3.94401,6.99401 7.70993,16.53169 l 2.59286,6.56675 v 15.07709 15.07707 l -3.54816,7.32716 c -1.95147,4.02996 -6.22502,11.81806 -9.49677,17.30694 -8.0774,13.55102 -7.51403,14.83722 3.25674,7.4351 9.75418,-6.70347 18.52909,-14.06608 20.36786,-17.0897 6.51613,-10.71494 11.29293,-23.06346 12.67751,-32.77269 0.30296,-2.12454 0.70294,-3.415 0.88883,-2.8677 0.87578,2.57851 -3.08125,19.82094 -5.79975,25.27195 -2.89304,5.80099 -9.98396,16.45884 -12.37446,18.59922 -1.15994,1.03856 -6.64642,4.98206 -12.19216,8.76332 -5.54573,3.78123 -10.53022,7.41364 -11.07659,8.07202 -1.6838,2.02885 1.80124,4.5213 16.49504,11.79696 15.74831,7.7978 13.91831,7.68373 27.95122,1.7424 9.02826,-3.82245 10.645,-5.19226 16.314,-13.82242 5.22245,-7.95035 6.32338,-9.2265 4.0503,-4.69495 -3.62944,7.2356 -10.09697,16.02838 -12.97556,17.64062 -1.57471,0.88197 -6.99152,3.02496 -12.03738,4.76223 -8.00216,2.75512 -9.53999,3.06022 -12.03661,2.38794 -3.02646,-0.81493 -15.8167,-7.21953 -23.59759,-11.81627 -2.54944,-1.50615 -4.76456,-2.61025 -4.92247,-2.45355 -0.15779,0.15669 2.78025,4.2116 6.52925,9.01096 3.74897,4.79936 8.87837,11.7738 11.39866,15.49877 3.98167,5.88489 4.76267,7.65712 5.95799,13.51979 1.98737,9.74755 3.25048,21.47704 2.62225,24.35095 -0.71653,3.27799 -8.54828,16.95077 -11.75557,20.52304 -2.39284,2.6651 -2.35798,2.54497 0.63904,-2.20278 z"
     id="path825"
     inkscape:connector-curvature="0" />
  <g
     aria-label="TARANTULAS"
     style="font-style:normal;font-variant:normal;font-weight:normal;font-stretch:normal;font-size:40px;line-height:1.25;font-family:serif;-inkscape-font-specification:'serif, Normal';font-variant-ligatures:normal;font-variant-caps:normal;font-variant-numeric:normal;font-feature-settings:normal;text-align:start;letter-spacing:0px;word-spacing:0px;writing-mode:lr-tb;text-anchor:start;opacity:0.97000002;fill:#24221c;fill-opacity:1;stroke:none"
     id="text841"
     transform="matrix(2.1499836,0,0,2.1499836,-1049.1012,667.01328)">
    <path
       d="m 617.16224,-227.32471 0.33939,7.96499 h -0.85975 q -0.24889,-2.10396 -0.67876,-3.00566 -0.70138,-1.45273 -1.8779,-2.129 -1.15387,-0.70132 -3.05439,-0.70132 h -4.32141 v 25.94884 q 0,3.1309 0.61088,3.90736 0.85975,1.05198 2.64715,1.05198 h 1.06338 v 0.92675 h -13.00948 v -0.92675 h 1.086 q 1.94576,0 2.76027,-1.30245 0.49776,-0.80151 0.49776,-3.65689 v -25.94884 h -3.68791 q -2.1494,0 -3.0544,0.35066 -1.17651,0.47589 -2.01365,1.82844 -0.83712,1.35254 -0.9955,3.65688 h -0.85976 l 0.36201,-7.96499 z"
       id="path844"
       inkscape:connector-curvature="0"
       style="stroke-width:1.21883583;fill:#24221c" />
    <path
       d="m 628.06904,-201.75963 h -9.71233 l -1.70198,3.95893 q -0.62898,1.46148 -0.62898,2.18296 0,0.57349 0.53649,1.01749 0.55498,0.42549 2.36796,0.55499 v 0.68449 h -7.89937 v -0.68449 q 1.57248,-0.2775 2.03497,-0.72149 0.94348,-0.88799 2.09046,-3.60744 l 8.82435,-20.64564 h 0.64749 l 8.73185,20.86764 q 1.05448,2.51595 1.90547,3.27444 0.86948,0.73999 2.40495,0.83249 v 0.68449 h -9.89733 v -0.68449 q 1.49848,-0.074 2.01647,-0.49949 0.53649,-0.4255 0.53649,-1.03599 0,-0.81398 -0.73998,-2.57145 z m -0.51799,-1.36898 -4.25493,-10.13782 -4.36592,10.13782 z"
       id="path846"
       inkscape:connector-curvature="0"
       style="stroke-width:0.94718373;fill:#24221c" />
    <path
       d="m 663.71792,-193.36077 h -6.69688 l -8.49135,-11.7288 q -0.94349,0.037 -1.53548,0.037 -0.24049,0 -0.51798,0 -0.2775,-0.0185 -0.5735,-0.037 v 7.28887 q 0,2.36796 0.51799,2.94145 0.70299,0.81399 2.10897,0.81399 h 0.98048 v 0.68449 h -10.74831 v -0.68449 h 0.94348 q 1.59097,0 2.27546,-1.03599 0.38849,-0.57349 0.38849,-2.71945 v -16.20572 q 0,-2.36796 -0.51798,-2.94145 -0.72149,-0.81399 -2.14597,-0.81399 h -0.94348 v -0.68448 h 9.13884 q 3.99593,0 5.8829,0.59199 1.90546,0.57349 3.21894,2.14596 1.33198,1.55397 1.33198,3.71844 0,2.31246 -1.51697,4.01443 -1.49847,1.70197 -4.66193,2.40495 l 5.17992,7.19638 q 1.77596,2.47896 3.05245,3.29294 1.27647,0.81399 3.32993,1.03599 z m -17.81519,-12.89428 q 0.35149,0 0.61049,0.0185 0.259,0 0.4255,0 3.58893,0 5.4019,-1.55398 1.83147,-1.55397 1.83147,-3.95893 0,-2.34946 -1.47997,-3.81093 -1.46148,-1.47998 -3.88493,-1.47998 -1.07299,0 -2.90446,0.3515 z"
       id="path848"
       inkscape:connector-curvature="0"
       style="stroke-width:0.94718373;fill:#24221c" />
    <path
       d="m 680.75613,-201.75963 h -9.71233 l -1.70197,3.95893 q -0.62899,1.46148 -0.62899,2.18296 0,0.57349 0.5365,1.01749 0.55498,0.42549 2.36795,0.55499 v 0.68449 h -7.89937 v -0.68449 q 1.57248,-0.2775 2.03497,-0.72149 0.94348,-0.88799 2.09046,-3.60744 l 8.82436,-20.64564 h 0.64748 l 8.73185,20.86764 q 1.05448,2.51595 1.90547,3.27444 0.86949,0.73999 2.40496,0.83249 v 0.68449 h -9.89733 v -0.68449 q 1.49848,-0.074 2.01646,-0.49949 0.5365,-0.4255 0.5365,-1.03599 0,-0.81398 -0.73999,-2.57145 z m -0.51799,-1.36898 -4.25493,-10.13782 -4.36592,10.13782 z"
       id="path850"
       inkscape:connector-curvature="0"
       style="stroke-width:0.94718373;fill:#24221c" />
    <path
       d="m 690.30197,-218.44634 h 6.80788 l 15.33624,18.81417 v -14.46675 q 0,-2.31246 -0.51799,-2.88595 -0.68449,-0.77699 -2.16447,-0.77699 h -0.86948 v -0.68448 h 8.73185 v 0.68448 h -0.88798 q -1.59098,0 -2.25697,0.96199 -0.40698,0.59199 -0.40698,2.70095 v 21.14514 h -0.666 l -16.53872,-20.20165 v 15.44723 q 0,2.31246 0.4995,2.88595 0.70298,0.77699 2.16446,0.77699 h 0.88798 v 0.68449 h -8.73185 v -0.68449 h 0.86949 q 1.60947,0 2.27547,-0.96199 0.40698,-0.59199 0.40698,-2.70095 v -17.4452 q -1.09148,-1.27648 -1.66497,-1.68347 -0.55499,-0.40699 -1.64647,-0.75849 -0.53649,-0.1665 -1.62797,-0.1665 z"
       id="path852"
       inkscape:connector-curvature="0"
       style="stroke-width:0.94718373;fill:#24221c" />
    <path
       d="m 740.10311,-218.44634 0.2775,5.88289 h -0.70298 q -0.20351,-1.55397 -0.555,-2.21996 -0.57349,-1.07298 -1.53548,-1.57247 -0.94348,-0.51799 -2.49745,-0.51799 h -3.53344 v 19.16567 q 0,2.31246 0.49949,2.88595 0.70299,0.77699 2.16447,0.77699 h 0.86948 v 0.68449 h -10.63731 v -0.68449 h 0.88798 q 1.59097,0 2.25696,-0.96199 0.40699,-0.59199 0.40699,-2.70095 v -19.16567 h -3.01545 q -1.75747,0 -2.49746,0.25899 -0.96198,0.3515 -1.64647,1.35048 -0.68448,0.99898 -0.81398,2.70095 h -0.70299 l 0.296,-5.88289 z"
       id="path854"
       inkscape:connector-curvature="0"
       style="stroke-width:0.94718373;fill:#24221c" />
    <path
       d="m 759.41678,-217.76186 v -0.68448 h 8.87985 v 0.68448 h -0.94348 q -1.47998,0 -2.27547,1.23948 -0.38848,0.57349 -0.38848,2.66396 v 10.17482 q 0,3.77394 -0.7585,5.8644 -0.73999,2.07197 -2.94144,3.57044 -2.18297,1.47997 -5.95691,1.47997 -4.10692,0 -6.23439,-1.42447 -2.12746,-1.42448 -3.01544,-3.82943 -0.59199,-1.64648 -0.59199,-6.1789 v -9.80483 q 0,-2.31246 -0.6475,-3.03395 -0.62898,-0.72149 -2.05345,-0.72149 h -0.94349 v -0.68448 h 10.84081 v 0.68448 h -0.96198 q -1.55398,0 -2.21996,0.98049 -0.46249,0.66599 -0.46249,2.77495 v 10.93331 q 0,1.46148 0.25899,3.34844 0.27749,1.88697 0.98048,2.94145 0.70299,1.05449 2.01647,1.73897 1.33198,0.68449 3.25594,0.68449 2.46046,0 4.40293,-1.07298 1.94247,-1.07298 2.64545,-2.73795 0.72149,-1.68347 0.72149,-5.6794 v -10.15633 q 0,-2.34946 -0.51799,-2.94145 -0.72149,-0.81399 -2.14597,-0.81399 z"
       id="path856"
       inkscape:connector-curvature="0"
       style="stroke-width:0.94718373;fill:#24221c" />
    <path
       d="m 790.44075,-200.29816 0.61049,0.1295 -2.14597,6.80789 h -19.42466 v -0.68449 h 0.94348 q 1.59097,0 2.27547,-1.03599 0.38848,-0.59199 0.38848,-2.73795 v -16.18722 q 0,-2.34946 -0.51798,-2.94145 -0.72149,-0.81399 -2.14597,-0.81399 h -0.94348 v -0.68448 h 11.35881 v 0.68448 q -1.99797,-0.0185 -2.81196,0.37 -0.79549,0.38849 -1.09148,0.98048 -0.296,0.59199 -0.296,2.83045 v 15.76173 q 0,1.53548 0.296,2.10897 0.222,0.38849 0.68449,0.57349 0.46249,0.18499 2.88594,0.18499 h 1.83148 q 2.88594,0 4.05143,-0.42549 1.16548,-0.42549 2.12747,-1.49847 0.96197,-1.09149 1.92396,-3.42245 z"
       id="path858"
       inkscape:connector-curvature="0"
       style="stroke-width:0.94718373;fill:#24221c" />
    <path
       d="m 809.21792,-201.75963 h -9.71233 l -1.70197,3.95893 q -0.62899,1.46148 -0.62899,2.18296 0,0.57349 0.5365,1.01749 0.55498,0.42549 2.36796,0.55499 v 0.68449 h -7.89937 v -0.68449 q 1.57247,-0.2775 2.03496,-0.72149 0.94348,-0.88799 2.09047,-3.60744 l 8.82435,-20.64564 h 0.64748 l 8.73185,20.86764 q 1.05448,2.51595 1.90547,3.27444 0.86949,0.73999 2.40496,0.83249 v 0.68449 h -9.89733 v -0.68449 q 1.49848,-0.074 2.01646,-0.49949 0.5365,-0.4255 0.5365,-1.03599 0,-0.81398 -0.73999,-2.57145 z m -0.51799,-1.36898 -4.25492,-10.13782 -4.36592,10.13782 z"
       id="path860"
       inkscape:connector-curvature="0"
       style="stroke-width:0.94718373;fill:#24221c" />
    <path
       d="m 836.63446,-219.01983 v 8.67635 h -0.6845 q -0.33299,-2.49746 -1.20247,-3.97744 -0.85099,-1.47997 -2.44197,-2.34945 -1.59096,-0.86949 -3.29294,-0.86949 -1.92396,0 -3.18194,1.18398 -1.25798,1.16548 -1.25798,2.66395 0,1.14698 0.79549,2.09047 1.14697,1.38747 5.4574,3.69994 3.51494,1.88696 4.79142,2.90445 1.29498,0.99898 1.97947,2.36795 0.70299,1.36898 0.70299,2.86746 0,2.84895 -2.21997,4.92091 -2.20146,2.05347 -5.6794,2.05347 -1.09148,0 -2.05346,-0.1665 -0.57349,-0.0925 -2.38646,-0.66599 -1.79448,-0.59199 -2.27547,-0.59199 -0.46249,0 -0.73998,0.27749 -0.259,0.2775 -0.38849,1.14699 h -0.68449 v -8.60236 h 0.68449 q 0.48099,2.70096 1.29497,4.05143 0.81399,1.33198 2.47896,2.21997 1.68347,0.88798 3.68144,0.88798 2.31246,0 3.64444,-1.22098 1.35047,-1.22098 1.35047,-2.88595 0,-0.92498 -0.51799,-1.86847 -0.49949,-0.94348 -1.57247,-1.75747 -0.72149,-0.55499 -3.94043,-2.34946 -3.21895,-1.81297 -4.58793,-2.88595 -1.35047,-1.07298 -2.05346,-2.36796 -0.70299,-1.29497 -0.70299,-2.84895 0,-2.70095 2.07196,-4.64342 2.07197,-1.96096 5.27242,-1.96096 1.99796,0 4.23643,0.98048 1.03598,0.46249 1.46146,0.46249 0.481,0 0.777,-0.27749 0.31449,-0.296 0.49948,-1.16548 z"
       id="path862"
       inkscape:connector-curvature="0"
       style="stroke-width:0.94718373;fill:#24221c" />
  </g>
  <path
     style="fill:#ffffff;stroke-width:0.20795734"
     d="m 119.43143,298.42641 c 0.007,-1.18457 0.0663,-2.06388 0.1351,-1.95404 0.0688,0.10975 0.23819,-0.92953 0.37639,-2.30973 0.13818,-1.3802 0.19328,-2.60319 0.12253,-2.71773 -0.0707,-0.1146 -0.0176,-0.20826 0.11945,-0.20826 0.17895,0 0.21906,-0.41992 0.14369,-1.50769 -0.0575,-0.82924 -0.0375,-1.32087 0.0447,-1.09253 0.15868,0.44105 0.26671,-0.1027 0.54166,-2.72509 0.1254,-1.19626 0.0985,-1.30771 -0.46221,-1.91619 -0.32747,-0.3553 -0.85181,-0.70607 -1.16519,-0.77945 -0.49459,-0.11571 -0.74168,0.0337 -1.87163,1.13239 l -1.30181,1.26584 0.68253,0.004 c 0.3754,0.002 0.98514,0.13047 1.35498,0.28487 0.70924,0.29635 2.01819,1.63705 2.01689,2.06581 -4.4e-4,0.13906 -0.17829,-0.0383 -0.39535,-0.39433 -0.66082,-1.08369 -1.63504,-1.64049 -2.87036,-1.64049 -1.0035,0 -1.15287,0.0685 -2.03677,0.93581 -0.91611,0.89879 -0.93497,0.94115 -0.47675,1.07104 0.46117,0.13069 0.46219,0.13598 0.03,0.15604 -0.5784,0.0269 -2.18422,1.26601 -3.58029,2.76286 l -1.10282,1.18247 1.10937,-0.42437 c 2.48227,-0.9495 5.93282,0.14633 7.4755,2.37408 0.3455,0.49895 0.22658,0.42369 -0.45342,-0.28685 -0.50694,-0.52976 -1.43643,-1.22981 -2.0655,-1.55567 -0.97806,-0.50662 -1.3848,-0.59246 -2.80742,-0.59246 -2.01801,0 -3.14424,0.50684 -5.05294,2.27397 -2.12869,1.97076 -1.89113,1.25746 0.33441,-1.00411 1.16896,-1.18792 2.12047,-2.3301 2.12223,-2.54749 0.002,-0.287 0.0498,-0.32068 0.17454,-0.12385 0.24115,0.38016 2.61455,-2.19055 2.94398,-3.18873 0.13884,-0.42063 0.21245,-1.31684 0.16374,-1.99155 -0.10159,-1.40499 -0.83302,-2.64914 -2.04536,-3.47915 -0.65894,-0.45117 -0.87025,-0.48365 -2.48775,-0.38228 -0.9722,0.0608 -1.9411,0.17807 -2.15311,0.26054 -0.33533,0.13025 -0.30435,0.1838 0.23804,0.41194 0.96131,0.40419 2.31057,1.72993 2.85591,2.8061 0.65634,1.29524 1.00902,3.38283 0.75364,4.46112 -0.18424,0.77743 -0.199,0.72982 -0.22655,-0.72784 -0.0511,-2.70232 -1.18972,-4.86843 -3.17146,-6.03375 -1.07904,-0.63451 -1.14842,-0.64656 -3.07948,-0.53518 -1.08658,0.0626 -2.4903,0.16507 -3.11938,0.22737 -0.74831,0.074 -0.99997,0.0498 -0.72784,-0.0703 0.22874,-0.10116 1.01974,-0.25058 1.75776,-0.33232 1.70544,-0.18887 3.64343,-0.68167 4.60833,-1.1718 1.09194,-0.55467 2.592,-2.32644 3.08478,-3.64352 0.24947,-0.66675 0.42624,-1.6356 0.42508,-2.32948 -0.004,-2.12547 -0.8651,-3.37839 -4.36534,-6.34908 -0.85207,-0.72316 -0.81494,-0.70946 0.41617,0.15339 3.08211,2.16033 5.14201,2.75654 7.32818,2.12102 1.72137,-0.50043 3.09634,-1.68497 3.93607,-3.39096 0.66988,-1.36093 0.69313,-1.49244 0.68824,-3.89464 l -0.004,-2.48617 0.36789,1.65016 c 0.20231,0.90761 0.41547,1.85482 0.47362,2.10489 0.16221,0.69756 1.95785,2.41648 3.1198,2.98644 0.89311,0.4381 1.33312,0.51006 3.11936,0.51006 3.02095,0 3.70954,-0.38731 5.55821,-3.12617 0.76949,-1.14004 1.43514,-2.16635 1.47921,-2.28073 0.0441,-0.11438 0.13422,-0.15889 0.20011,-0.0992 0.0659,0.0599 -0.16308,0.56376 -0.50924,1.11977 -0.34605,0.55601 -0.86465,1.72358 -1.15245,2.5946 -0.46913,1.41991 -0.50047,1.70941 -0.30305,2.79934 0.31444,1.73598 0.9411,2.88832 2.19061,4.02826 1.14097,1.04087 2.65876,1.72545 3.82165,1.72369 0.3736,-5.6e-4 1.71578,-0.28873 2.98261,-0.64035 2.42997,-0.67446 3.37335,-0.73897 1.20477,-0.0824 -0.69892,0.21157 -1.31456,0.49893 -1.3681,0.63846 -0.0536,0.1395 -0.30893,0.30677 -0.56753,0.37167 -0.7664,0.1924 -2.27319,1.66297 -2.82027,2.75257 -0.94474,1.88157 -0.78847,4.9331 0.3419,6.67638 0.6891,1.06275 1.70275,1.71317 4.02597,2.58329 1.02305,0.38316 1.86099,0.7599 1.86209,0.83719 0,0.0774 -0.5361,-0.067 -1.19377,-0.32044 -0.88711,-0.34196 -1.73372,-0.47607 -3.27995,-0.51955 -2.00937,-0.0564 -2.1318,-0.0337 -3.41013,0.63237 -1.60492,0.83636 -2.75116,2.33014 -3.24295,4.22625 -0.42408,1.63508 -0.24291,2.94404 0.65483,4.73103 0.79926,1.59099 0.68317,1.87013 -0.19791,0.47563 -0.32224,-0.51004 -1.11767,-1.41416 -1.76765,-2.00915 -1.01112,-0.92559 -0.8122,-1.1292 0.22193,-0.22715 1.07666,0.93912 -0.77483,-2.09735 -2.12245,-3.48092 -1.9145,-1.96554 -4.67871,-2.13695 -6.55596,-0.40654 -0.94161,0.86791 -0.96019,0.9434 -1.45409,5.90807 -0.0886,0.89026 -0.54274,3.71362 -0.60932,3.78793 -0.022,0.0247 -0.0355,-0.92446 -0.03,-2.10903 z m 12.10458,-8.20754 c 1.07622,-2.20793 2.85822,-3.45403 5.32967,-3.72682 l 1.29026,-0.14237 -1.76679,-0.82073 c -1.41917,-0.65921 -2.01231,-0.82273 -3.01455,-0.83106 -2.15707,-0.0176 -3.88018,1.38791 -4.58931,3.74421 -0.45223,1.50255 -0.38505,1.82804 0.79409,3.84809 l 1.09178,1.8704 0.15911,-1.40995 c 0.0915,-0.81183 0.39101,-1.88584 0.70581,-2.5317 z m -8.32991,-0.564 c 1.5924,-0.4874 3.39461,-0.0888 4.60564,1.01846 0.25735,0.23532 0.4679,0.37372 0.4679,0.30759 0,-0.25287 -1.50804,-2.78186 -1.92622,-3.23028 -0.24138,-0.25884 -0.45159,-0.64339 -0.46715,-0.85456 -0.0425,-0.57806 -1.06824,-2.22596 -1.6897,-2.71479 -0.64694,-0.50889 -1.327,-0.54768 -2.14905,-0.12254 -0.54126,0.27991 -0.60938,0.43909 -0.73425,1.71565 -0.0758,0.77392 -0.18931,1.59427 -0.2525,1.82303 -0.11482,0.41554 -0.11438,0.41554 0.38063,0.002 l 0.49555,-0.41444 -0.46232,0.52586 c -0.35069,0.39892 -0.49531,0.9006 -0.59898,2.07809 l -0.13664,1.55223 0.72436,-0.687 c 0.39841,-0.37785 1.18265,-0.82728 1.74275,-0.99872 z m 0.0306,-2.92308 c 0.14303,-0.0577 0.37693,-0.0577 0.51989,0 0.14303,0.0577 0.026,0.1049 -0.25994,0.1049 -0.28595,0 -0.40293,-0.0472 -0.25995,-0.1049 z m 1.24775,0 c 0.14303,-0.0577 0.37692,-0.0577 0.51988,0 0.14303,0.0577 0.026,0.1049 -0.25994,0.1049 -0.28595,0 -0.40293,-0.0472 -0.25994,-0.1049 z m 4.67467,0.11349 c 0.61996,-1.05515 1.50875,-1.76637 2.85035,-2.28088 0.61186,-0.23464 0.83837,-0.40586 0.63731,-0.48169 -3.03662,-1.14536 -4.32018,-0.93776 -5.55792,0.8989 -0.68013,1.00925 -0.60357,1.88703 0.30194,3.46141 l 0.77479,1.34712 0.22897,-1.01663 c 0.12584,-0.55916 0.46999,-1.42685 0.76456,-1.92823 z m -14.03578,-1.18434 c 0.44681,-0.76237 0.50662,-1.0587 0.39837,-1.9729 -0.22466,-1.89677 -1.32253,-2.9086 -3.04844,-2.80947 l -1.11752,0.0641 0.84632,0.55817 c 1.10804,0.73077 1.76227,2.06854 1.78801,3.65612 0.011,0.65595 -0.0577,1.42657 -0.15162,1.71251 l -0.17102,0.51989 0.46512,-0.41567 c 0.2558,-0.2286 0.70168,-0.81936 0.99085,-1.3128 z m 11.37044,-0.0752 c 0.18358,-0.83558 1.13909,-1.84891 2.17598,-2.30757 l 0.92374,-0.40861 -1.40535,-0.59954 c -1.74634,-0.74498 -2.25285,-0.75325 -2.80932,-0.0458 -0.75265,0.95684 -0.73599,1.38071 0.11394,2.90054 0.4322,0.77286 0.80676,1.31783 0.83235,1.21103 0.0256,-0.10689 0.10159,-0.44431 0.16859,-0.75001 z m -8.69928,-2.50118 c 0.46647,-0.8872 0.36306,-1.58619 -0.33837,-2.28765 -0.61135,-0.61132 -0.67876,-0.62851 -1.91637,-0.48848 -0.70552,0.0798 -1.35442,0.18931 -1.442,0.24355 -0.0875,0.0542 0.15405,0.37342 0.53681,0.70955 0.8221,0.7218 1.27545,2.09318 1.10704,3.34875 l -0.11504,0.85846 0.93636,-0.91131 c 0.51504,-0.50122 1.06926,-1.16402 1.23166,-1.47287 z m 18.61908,1.58408 c -0.7631,-0.97013 -1.27146,-2.69464 -1.2693,-4.30566 0.002,-1.85369 0.645,-3.37901 1.93074,-4.58383 l 0.87468,-0.81963 -0.93582,0.14193 c -1.12623,0.17079 -3.03413,1.01343 -3.71807,1.64212 -0.68165,0.62657 -1.26287,1.96064 -1.26835,2.91127 -0.0132,2.23784 1.10057,3.95827 3.20671,4.95465 1.5504,0.73345 1.71637,0.74181 1.17941,0.0593 z m -15.24648,-2.73682 c -0.36273,-0.43706 -1.1945,-0.29485 -1.74414,0.29823 l -0.51856,0.55953 0.76641,0.3728 c 0.42152,0.20496 0.91609,0.5849 1.09901,0.84416 0.32522,0.46097 0.33571,0.4461 0.47338,-0.67101 0.0862,-0.69952 0.0566,-1.24369 -0.076,-1.40371 z m 2.25303,1.65299 c 0.81632,0.0954 0.82769,0.0648 0.29805,-0.80396 -0.71727,-1.17632 -2.09314,-1.09238 -2.09314,0.1276 0,0.32976 -0.0604,0.75704 -0.13422,0.9495 -0.12562,0.3271 -0.0897,0.32694 0.54737,-0.002 0.39275,-0.20319 0.9785,-0.31784 1.38203,-0.27072 z m 9.48077,-0.30547 c -1.1919,-1.26871 -1.53091,-3.89811 -0.70835,-5.49393 0.24654,-0.47834 0.5432,-0.92836 0.65921,-1.00005 0.53555,-0.331 0.12165,-0.45417 -0.69754,-0.20761 -2.76533,0.83224 -3.66628,2.08673 -3.04768,4.24365 0.28669,0.99966 0.95668,1.64957 2.39647,2.3246 1.56536,0.73395 2.00115,0.77551 1.39789,0.13334 z m -7.51539,-1.52191 c 0.40335,-0.4306 0.40277,-0.4342 -0.10622,-0.66613 -0.5594,-0.25487 -1.31477,-0.17983 -1.65954,0.16507 -0.15383,0.15383 -0.0721,0.49714 0.27407,1.14959 l 0.49346,0.93017 0.29635,-0.57282 c 0.16309,-0.31504 0.47885,-0.76764 0.7019,-1.00579 z m -5.85619,-0.009 c 0.84685,-1.07658 0.38206,-1.7409 -1.21793,-1.7409 -0.96837,0 -0.99768,0.0529 -0.42959,0.77507 0.23069,0.2933 0.41591,0.84365 0.41591,1.23589 0,0.63316 0.0419,0.68473 0.39979,0.49315 0.21995,-0.11769 0.5942,-0.46113 0.83182,-0.76321 z m 9.44221,-0.12915 c -0.48945,-0.92241 -0.48134,-2.78858 0.0154,-3.53528 0.36945,-0.55544 0.36925,-0.57174 -0.009,-0.56731 -0.64297,0.009 -2.10667,0.76343 -2.34665,1.21182 -0.62102,1.16041 0.0842,2.53551 1.64962,3.21703 1.03673,0.45132 1.08865,0.42673 0.68912,-0.32626 z m -6.18648,0.13333 c 0.39552,0.15185 0.37952,0.0703 -0.21686,-1.10674 l -0.51255,-1.0115 0.45521,0.11901 c 0.25035,0.0655 0.34007,0.15736 0.19922,0.2043 -0.18975,0.0632 -0.16418,0.24041 0.099,0.68596 0.33487,0.5669 0.37635,0.58118 0.73775,0.25413 0.3702,-0.33503 0.3671,-0.35586 -0.0937,-0.6271 -0.43327,-0.2551 -0.43696,-0.27 -0.0403,-0.16397 0.37005,0.099 0.43885,0.022 0.45401,-0.51171 0.0154,-0.5339 -0.0502,-0.61714 -0.43616,-0.55415 -0.24969,0.0408 -0.33185,0.0331 -0.18248,-0.0176 0.3687,-0.12386 0.18072,-0.58261 -0.22541,-0.54995 -0.17873,0.0154 -0.28475,-0.0791 -0.23543,-0.20804 0.0502,-0.13113 -0.13995,-0.24732 -0.43235,-0.26411 -0.28712,-0.0154 -0.52861,0.0771 -0.53666,0.20804 -0.009,0.13091 -0.0782,0.0818 -0.15603,-0.10931 -0.12936,-0.31761 -0.18336,-0.31307 -0.63373,0.0531 -0.42437,0.34503 -0.45448,0.45046 -0.21796,0.7631 0.23332,0.30842 0.23074,0.32383 -0.0176,0.10269 -0.45759,-0.40806 -0.68163,-0.30648 -0.57335,0.25995 0.0637,0.33333 0.004,0.51988 -0.16419,0.51988 -0.2065,0 -0.21157,0.11218 -0.0231,0.51828 0.30428,0.65606 0.34977,0.65172 1.07221,-0.10226 0.48293,-0.50408 0.52797,-0.62388 0.23458,-0.62388 -0.20033,0 -0.3027,-0.0978 -0.22834,-0.21796 0.0917,-0.14832 0.23177,-0.13752 0.43777,0.0335 0.25787,0.21399 0.19305,0.36394 -0.43445,1.00666 -0.84627,0.86666 -0.90231,1.04958 -0.32151,1.04958 0.22876,0 0.41593,0.10931 0.41593,0.24264 0,0.41607 0.24784,0.0176 0.43603,-0.69998 0.16088,-0.61392 0.16881,-0.59208 0.0758,0.20694 -0.0994,0.85472 -0.0853,0.88319 0.33216,0.65985 0.23989,-0.12848 0.56921,-0.18225 0.73183,-0.11989 z m 3.50796,-1.06923 c -0.35663,-0.68365 -0.38321,-1.38119 -0.0747,-1.95782 0.21179,-0.39566 0.18181,-0.41382 -0.4679,-0.2828 -0.6225,0.12562 -1.63501,0.94487 -1.62681,1.3164 0.007,0.35109 0.38534,0.67272 1.25033,1.06509 1.20946,0.54862 1.27355,0.53879 0.919,-0.14083 z m -16.38031,-0.18909 c 2.39171,-0.66543 3.75679,-2.56857 3.55838,-4.96099 -0.0588,-0.7088 -0.25805,-1.37621 -0.51382,-1.72102 -0.48253,-0.65049 -2.56351,-2.39864 -2.69673,-2.26544 -0.0491,0.0491 0.0705,0.66554 0.26622,1.36945 0.76579,2.75444 -0.55849,5.91307 -3.25264,7.75801 -0.51371,0.3518 -0.50937,0.35376 0.52176,0.2372 0.57187,-0.0648 1.52446,-0.25241 2.11683,-0.41721 z m 2.88359,-0.30279 c 1.6951,-0.42681 2.83596,-2.23901 2.50849,-3.98453 -0.12517,-0.66735 -1.23276,-2.23011 -1.5805,-2.23011 -0.0968,0 -0.0796,0.34944 0.0383,0.7765 0.47089,1.70542 -0.23491,3.86718 -1.641,5.0262 -0.8478,0.69884 -0.73593,0.76714 0.67466,0.41194 z m 3.58013,-0.52651 c 0.83839,-0.3745 1.31832,-1.07739 1.34364,-1.96779 0.0154,-0.52901 -0.13708,-0.81088 -0.68932,-1.27818 -0.38975,-0.32974 -0.87417,-0.69084 -1.07651,-0.80244 -0.33262,-0.18336 -0.35515,-0.12319 -0.23495,0.62849 0.20275,1.26743 -0.0714,2.24626 -0.87913,3.14038 l -0.73062,0.8087 0.79435,-0.11306 c 0.43691,-0.0621 1.09956,-0.24943 1.47254,-0.41606 z m 2.8489,-0.0701 c 0.90115,-0.34263 0.90421,-0.82703 0.011,-1.59996 -0.9798,-0.84698 -1.14562,-0.85897 -1.14562,-0.0829 0,0.35058 -0.22788,0.87871 -0.53837,1.24772 l -0.53838,0.63984 h 0.83677 c 0.46023,0 1.07922,-0.0923 1.37555,-0.20496 z m 5.95594,-1.28175 c 0.9536,-0.32218 0.94736,-0.29703 0.22424,-0.90551 -0.3514,-0.29567 -0.69912,-0.72736 -0.77273,-0.95933 -0.12364,-0.38968 -0.1719,-0.37011 -0.63499,0.2575 -0.48507,0.65744 -0.64747,1.42255 -0.36249,1.70755 0.20451,0.20452 0.74836,0.16926 1.54597,-0.10027 z m -3.97418,-0.89954 c 0.0974,-0.25619 0.0857,-0.87084 -0.0262,-1.39626 l -0.20011,-0.93859 -0.68043,0.68043 c -0.39722,0.39722 -0.99492,0.73943 -1.43602,0.82216 l -0.75561,0.14171 0.58944,0.49598 c 1.14774,0.96576 2.18517,1.0462 2.50898,0.19459 z m 1.73102,0.0785 c 0.38376,-0.17477 1.18243,-1.33171 1.18243,-1.71271 0,-0.0304 -0.31519,-0.0176 -0.7004,0.0264 -0.4024,0.0472 -0.98875,-0.0672 -1.37819,-0.26873 l -0.67779,-0.3505 0.14986,1.0068 c 0.22051,1.48107 0.48806,1.72503 1.42405,1.29854 z m 5.2858,-0.10975 c 0.44927,-0.12055 0.44323,-0.13862 -0.18887,-0.56906 -0.90622,-0.61707 -1.43243,-1.38777 -1.71952,-2.51847 l -0.24487,-0.9644 -0.55918,1.02736 c -0.80656,1.48195 -0.70245,2.28461 0.37666,2.90347 0.45242,0.25948 1.59793,0.31887 2.33573,0.12099 z m 3.04872,-0.93696 1.47814,-0.44317 -1.01066,-0.29763 c -1.89292,-0.55748 -3.6684,-2.94492 -3.6684,-4.93281 0,-0.61271 -0.91818,0.77569 -1.25381,1.89585 -0.38044,1.26986 -0.1179,2.21266 0.91711,3.2928 1.04129,1.08676 1.37693,1.13277 3.53762,0.48496 z m -11.84119,-0.47504 c 0.38743,-0.16176 0.80554,-0.48326 0.92911,-0.71418 0.25318,-0.47305 0.30933,-2.5311 0.0688,-2.51874 -0.0857,0.004 -0.34314,0.30556 -0.57187,0.66926 -0.50173,0.79766 -1.7186,1.51582 -2.88562,1.70304 l -0.85762,0.13752 0.51409,0.38845 c 0.28273,0.21355 0.56795,0.35514 0.6338,0.31444 0.0659,-0.0408 0.25562,0.011 0.42172,0.11702 0.42777,0.27061 0.93544,0.24247 1.74765,-0.097 z m 15.8148,-0.76916 0.83184,-0.23533 -0.96103,-0.30814 c -1.98786,-0.63741 -4.04369,-2.75204 -4.56781,-4.69849 -0.12738,-0.47301 -0.23158,-1.40565 -0.23158,-2.07253 v -1.21256 l -0.73257,1.17117 c -1.45072,2.31932 -1.33985,4.40366 0.33,6.20237 1.35115,1.45546 3.00147,1.81252 5.33115,1.15349 z m -10.46964,-0.60892 c 0.95274,-1.00154 1.01689,-1.30767 0.22774,-1.08698 -1.02771,0.2874 -2.27563,0.12716 -3.2496,-0.41716 l -0.94324,-0.52718 0.12452,0.65612 c 0.16991,0.89465 0.61465,1.7359 1.05292,1.99117 0.20011,0.11658 0.72936,0.21487 1.17597,0.2184 0.68227,0.007 0.93983,-0.12804 1.61167,-0.83426 z m -6.2637,-0.49124 c 0.42536,-0.28149 0.98412,-0.85277 1.24168,-1.26952 0.39806,-0.64407 0.44791,-0.9311 0.33243,-1.91377 -0.18688,-1.58969 -0.31841,-1.69874 -0.78624,-0.65158 -0.80918,1.81118 -2.25428,2.81275 -4.40064,3.05002 l -1.27623,0.14104 1.03717,0.69373 c 0.92535,0.6189 1.14723,0.6812 2.05782,0.57778 0.56889,-0.0646 1.36292,-0.34243 1.79401,-0.62772 z m 6.65645,-1.08757 c 0.60041,-0.24024 1.05702,-0.64826 1.55804,-1.39225 0.38982,-0.57882 0.67896,-1.0822 0.64255,-1.1186 -0.0364,-0.0364 -0.40508,0.0754 -0.81929,0.24848 -0.96515,0.40326 -3.203,0.40495 -4.16462,0.002 -0.41002,-0.17124 -1.07604,-0.60169 -1.48001,-0.9564 l -0.73451,-0.64491 0.12407,0.69646 c 0.25558,1.4354 0.96414,2.54109 1.94551,3.03596 1.10273,0.5561 1.7842,0.58592 2.92834,0.12805 z m -8.5758,-0.61476 c 1.23675,-0.61628 2.17896,-1.65654 2.67363,-2.95182 0.30376,-0.79536 0.31149,-1.09396 0.0688,-2.65404 -0.1503,-0.96682 -0.35195,-1.75787 -0.44788,-1.75787 -0.0959,0 -0.17543,0.21047 -0.17653,0.46792 -0.004,0.87043 -0.97099,2.54226 -2.05378,3.54999 -1.52441,1.41872 -2.66532,1.88304 -4.66204,1.8973 l -1.62288,0.011 0.58309,0.47632 c 0.32072,0.26199 1.05101,0.70538 1.6229,0.98533 1.38258,0.67685 2.62213,0.6692 4.01467,-0.0247 z m 10.47354,-2.30341 c 0.61293,-0.35792 2.33409,-2.34448 2.17184,-2.50671 -0.0344,-0.0344 -0.47486,0.0838 -0.97879,0.26261 -2.88716,1.02454 -6.35906,0.28866 -8.24647,-1.74788 l -0.50611,-0.54609 0.1492,0.83065 c 0.40193,2.23643 1.38879,3.41288 3.42255,4.08011 0.88641,0.29082 3.22596,0.0721 3.98769,-0.37269 z m -4.31053,24.16918 c 0.22202,-0.17785 0.49496,-0.32341 0.60654,-0.32341 0.26422,0 0.14634,0.0961 -0.49031,0.39922 -0.49022,0.23345 -0.49685,0.22913 -0.11614,-0.0758 z m 5.1072,-0.53137 c -0.4283,-0.13708 -0.44661,-0.16969 -0.10402,-0.18402 0.22875,-0.009 0.55629,0.0732 0.72784,0.18402 0.36438,0.23548 0.11151,0.23548 -0.62387,0 z m -3.11936,-0.20231 c 0.50823,-0.16815 2.64959,-0.28745 2.47817,-0.13796 -0.0478,0.0414 -0.74172,0.12826 -1.54235,0.19283 -0.88606,0.0714 -1.25227,0.05 -0.93582,-0.0549 z m -5.19524,-3.11603 c -0.27786,-0.67078 -1.71595,-2.08849 -2.11852,-2.08849 -0.13311,0 -0.18138,-0.0608 -0.10711,-0.13487 0.2504,-0.2504 1.72915,0.96614 2.20628,1.81506 0.26048,0.46346 0.42995,0.88629 0.37662,0.93962 -0.0533,0.0533 -0.21399,-0.18578 -0.35722,-0.53132 z m -4.31881,-2.64775 c 0.20011,-0.0525 0.52771,-0.0525 0.72786,0 0.20011,0.0524 0.0364,0.0952 -0.36394,0.0952 -0.40031,0 -0.56407,-0.0428 -0.36392,-0.0952 z"
     id="path1418"
     inkscape:connector-curvature="0" />
</svg>
